<svg width="26" height="32" viewBox="0 0 26 32" fill="none" xmlns="http://www.w3.org/2000/svg">
<path d="M0 27.2V24.8H3.36V12.56C3.36 10.32 4.02 8.32667 5.34 6.58C6.66 4.83333 8.4 3.73333 10.56 3.28V2.12C10.56 1.50667 10.78 1 11.22 0.6C11.66 0.2 12.1867 0 12.8 0C13.4133 0 13.94 0.2 14.38 0.6C14.82 1 15.04 1.50667 15.04 2.12V3.28C17.2 3.73333 18.9467 4.83333 20.28 6.58C21.6133 8.32667 22.28 10.32 22.28 12.56V24.8H25.6V27.2H0ZM12.8 32C11.9467 32 11.2 31.6867 10.56 31.06C9.92 30.4333 9.6 29.68 9.6 28.8H16C16 29.68 15.6867 30.4333 15.06 31.06C14.4333 31.6867 13.68 32 12.8 32ZM5.76 24.8H19.88V12.56C19.88 10.5867 19.2 8.90667 17.84 7.52C16.48 6.13333 14.8133 5.44 12.84 5.44C10.8667 5.44 9.19333 6.13333 7.82 7.52C6.44667 8.90667 5.76 10.5867 5.76 12.56V24.8Z" fill="#FF5C00"/>
</svg>
