<svg width="23" height="28" viewBox="0 0 23 28" fill="none" xmlns="http://www.w3.org/2000/svg">
<path d="M4.64262 21.8278C4.33998 21.8278 4.07518 21.7143 3.8482 21.4873C3.62122 21.2603 3.50773 20.9955 3.50773 20.6929C3.50773 20.3903 3.62122 20.1254 3.8482 19.8985C4.07518 19.6715 4.33998 19.558 4.64262 19.558C4.94526 19.558 5.21007 19.6715 5.43705 19.8985C5.66403 20.1254 5.77752 20.3903 5.77752 20.6929C5.77752 20.9955 5.66403 21.2603 5.43705 21.4873C5.21007 21.7143 4.94526 21.8278 4.64262 21.8278ZM11.5276 21.8278C11.225 21.8278 10.9602 21.7143 10.7332 21.4873C10.5062 21.2603 10.3927 20.9955 10.3927 20.6929C10.3927 20.3903 10.5062 20.1254 10.7332 19.8985C10.9602 19.6715 11.225 19.558 11.5276 19.558C11.8303 19.558 12.0951 19.6715 12.3221 19.8985C12.549 20.1254 12.6625 20.3903 12.6625 20.6929C12.6625 20.9955 12.549 21.2603 12.3221 21.4873C12.0951 21.7143 11.8303 21.8278 11.5276 21.8278ZM18.4127 21.8278C18.11 21.8278 17.8452 21.7143 17.6182 21.4873C17.3913 21.2603 17.2778 20.9955 17.2778 20.6929C17.2778 20.3903 17.3913 20.1254 17.6182 19.8985C17.8452 19.6715 18.11 19.558 18.4127 19.558C18.7153 19.558 18.9801 19.6715 19.2071 19.8985C19.4341 20.1254 19.5476 20.3903 19.5476 20.6929C19.5476 20.9955 19.4341 21.2603 19.2071 21.4873C18.9801 21.7143 18.7153 21.8278 18.4127 21.8278ZM0.935303 16.1533V13.8835C0.935303 11.185 1.84952 8.82695 3.67796 6.80936C5.5064 4.79177 7.74466 3.64427 10.3927 3.36685V0H12.6625V3.36685C15.3106 3.64427 17.5489 4.79177 19.3773 6.80936C21.2058 8.82695 22.12 11.185 22.12 13.8835V16.1533H0.935303ZM3.20509 13.8835H19.8502C19.8502 11.5885 19.0395 9.62768 17.4182 8.001C15.7969 6.37432 13.836 5.56098 11.5357 5.56098C9.23531 5.56098 7.27179 6.37243 5.64511 7.99533C4.01843 9.61822 3.20509 11.581 3.20509 13.8835ZM4.64262 27.2374C4.33998 27.2374 4.07518 27.124 3.8482 26.897C3.62122 26.67 3.50773 26.4052 3.50773 26.1026C3.50773 25.7999 3.62122 25.5351 3.8482 25.3081C4.07518 25.0812 4.33998 24.9677 4.64262 24.9677C4.94526 24.9677 5.21007 25.0812 5.43705 25.3081C5.66403 25.5351 5.77752 25.7999 5.77752 26.1026C5.77752 26.4052 5.66403 26.67 5.43705 26.897C5.21007 27.124 4.94526 27.2374 4.64262 27.2374ZM11.5276 27.2374C11.225 27.2374 10.9602 27.124 10.7332 26.897C10.5062 26.67 10.3927 26.4052 10.3927 26.1026C10.3927 25.7999 10.5062 25.5351 10.7332 25.3081C10.9602 25.0812 11.225 24.9677 11.5276 24.9677C11.8303 24.9677 12.0951 25.0812 12.3221 25.3081C12.549 25.5351 12.6625 25.7999 12.6625 26.1026C12.6625 26.4052 12.549 26.67 12.3221 26.897C12.0951 27.124 11.8303 27.2374 11.5276 27.2374ZM18.4127 27.2374C18.11 27.2374 17.8452 27.124 17.6182 26.897C17.3913 26.67 17.2778 26.4052 17.2778 26.1026C17.2778 25.7999 17.3913 25.5351 17.6182 25.3081C17.8452 25.0812 18.11 24.9677 18.4127 24.9677C18.7153 24.9677 18.9801 25.0812 19.2071 25.3081C19.4341 25.5351 19.5476 25.7999 19.5476 26.1026C19.5476 26.4052 19.4341 26.67 19.2071 26.897C18.9801 27.124 18.7153 27.2374 18.4127 27.2374Z" fill="#F4F4F4"/>
</svg>
