<svg width="17" height="19" viewBox="0 0 17 19" fill="none" xmlns="http://www.w3.org/2000/svg">
<path d="M5.43504 1.35876V0H10.8701V1.35876H5.43504ZM7.47318 11.4815H8.83194V6.27294H7.47318V11.4815ZM8.15256 19C7.03536 19 5.98232 18.7849 4.99344 18.3546C4.00457 17.9243 3.14025 17.3393 2.40048 16.5995C1.66071 15.8598 1.07569 14.9954 0.645411 14.0066C0.215137 13.0177 0 11.9646 0 10.8474C0 9.73023 0.215137 8.6772 0.645411 7.68832C1.07569 6.69944 1.66071 5.83512 2.40048 5.09535C3.14025 4.35558 4.00457 3.77056 4.99344 3.34029C5.98232 2.91001 7.03536 2.69487 8.15256 2.69487C9.16408 2.69487 10.1152 2.86472 11.006 3.20441C11.8967 3.5441 12.6893 4.01589 13.3838 4.61979L14.5387 3.46484L15.4899 4.41597L14.3349 5.57092C14.8784 6.17481 15.3427 6.90703 15.7277 7.76758C16.1126 8.62813 16.3051 9.65475 16.3051 10.8474C16.3051 11.9646 16.09 13.0177 15.6597 14.0066C15.2294 14.9954 14.6444 15.8598 13.9046 16.5995C13.1649 17.3393 12.3006 17.9243 11.3117 18.3546C10.3228 18.7849 9.26977 19 8.15256 19ZM8.15256 17.6412C10.0397 17.6412 11.6438 16.9807 12.9648 15.6597C14.2859 14.3387 14.9464 12.7346 14.9464 10.8474C14.9464 8.96027 14.2859 7.35618 12.9648 6.03516C11.6438 4.71414 10.0397 4.05364 8.15256 4.05364C6.26539 4.05364 4.6613 4.71414 3.34029 6.03516C2.01927 7.35618 1.35876 8.96027 1.35876 10.8474C1.35876 12.7346 2.01927 14.3387 3.34029 15.6597C4.6613 16.9807 6.26539 17.6412 8.15256 17.6412Z" fill="#F4F4F4"/>
</svg>
