<svg width="25" height="26" viewBox="0 0 25 26" fill="none" xmlns="http://www.w3.org/2000/svg">
<path d="M21.9092 24.6631L12.5151 15.269L8.86353 18.9206C9.0924 19.2743 9.23285 19.6176 9.28486 19.9505C9.33688 20.2834 9.36289 20.6475 9.36289 21.0428C9.36289 22.3744 8.91555 23.4876 8.02087 24.3822C7.1262 25.2769 6.01305 25.7243 4.68144 25.7243C3.34983 25.7243 2.23669 25.2769 1.34201 24.3822C0.447338 23.4876 0 22.3744 0 21.0428C0 19.7112 0.447338 18.5981 1.34201 17.7034C2.23669 16.8087 3.34983 16.3614 4.68144 16.3614C5.05596 16.3614 5.42527 16.4134 5.78939 16.5174C6.1535 16.6215 6.53322 16.7775 6.92854 16.9856L10.5489 13.3653L6.86612 9.68253C6.51241 9.84898 6.1535 9.96342 5.78939 10.0258C5.42527 10.0883 5.05596 10.1195 4.68144 10.1195C3.34983 10.1195 2.23669 9.67213 1.34201 8.77745C0.447338 7.88278 0 6.76964 0 5.43803C0 4.10642 0.447338 2.99328 1.34201 2.0986C2.23669 1.20393 3.34983 0.756592 4.68144 0.756592C6.01305 0.756592 7.1262 1.20393 8.02087 2.0986C8.91555 2.99328 9.36289 4.10642 9.36289 5.43803C9.36289 5.83335 9.33688 6.20786 9.28486 6.56157C9.23285 6.91528 9.12361 7.24818 8.95716 7.56028L24.9989 23.602V24.6631H21.9092ZM16.1978 11.7736L14.138 9.71374L21.9092 1.94256H24.9989V2.97247L16.1978 11.7736ZM4.68144 8.24689C5.47209 8.24689 6.13789 7.97641 6.67886 7.43544C7.21983 6.89448 7.49031 6.22867 7.49031 5.43803C7.49031 4.64739 7.21983 3.98158 6.67886 3.44062C6.13789 2.89965 5.47209 2.62917 4.68144 2.62917C3.8908 2.62917 3.22499 2.89965 2.68403 3.44062C2.14306 3.98158 1.87258 4.64739 1.87258 5.43803C1.87258 6.22867 2.14306 6.89448 2.68403 7.43544C3.22499 7.97641 3.8908 8.24689 4.68144 8.24689ZM12.5775 13.9582C12.7439 13.9582 12.8844 13.901 12.9988 13.7866C13.1132 13.6722 13.1705 13.5317 13.1705 13.3653C13.1705 13.1988 13.1132 13.0584 12.9988 12.9439C12.8844 12.8295 12.7439 12.7723 12.5775 12.7723C12.411 12.7723 12.2706 12.8295 12.1561 12.9439C12.0417 13.0584 11.9845 13.1988 11.9845 13.3653C11.9845 13.5317 12.0417 13.6722 12.1561 13.7866C12.2706 13.901 12.411 13.9582 12.5775 13.9582ZM4.68144 23.8517C5.47209 23.8517 6.13789 23.5812 6.67886 23.0402C7.21983 22.4993 7.49031 21.8335 7.49031 21.0428C7.49031 20.2522 7.21983 19.5864 6.67886 19.0454C6.13789 18.5044 5.47209 18.234 4.68144 18.234C3.8908 18.234 3.22499 18.5044 2.68403 19.0454C2.14306 19.5864 1.87258 20.2522 1.87258 21.0428C1.87258 21.8335 2.14306 22.4993 2.68403 23.0402C3.22499 23.5812 3.8908 23.8517 4.68144 23.8517Z" fill="#F4F4F4"/>
</svg>
