<svg width="25" height="28" viewBox="0 0 25 28" fill="none" xmlns="http://www.w3.org/2000/svg">
<path d="M7.39525 27.2374L5.40227 25.7427V19.5977H3.40929C2.87782 19.5977 2.41279 19.3984 2.0142 18.9998C1.6156 18.6012 1.4163 18.1362 1.4163 17.6047V6.97544H1.08414C0.801799 6.97544 0.565132 6.87939 0.374138 6.68729C0.183144 6.49517 0.0876465 6.25712 0.0876465 5.97314C0.0876465 5.68914 0.183144 5.45303 0.374138 5.2648C0.565132 5.07657 0.801799 4.98246 1.08414 4.98246H5.40227V1.99298H4.40578C4.12344 1.99298 3.88677 1.89693 3.69578 1.70483C3.50478 1.51271 3.40929 1.27466 3.40929 0.990679C3.40929 0.706679 3.50478 0.470566 3.69578 0.282339C3.88677 0.0941131 4.12344 0 4.40578 0H8.39175C8.67409 0 8.91075 0.0960509 9.10175 0.288152C9.29274 0.480276 9.38824 0.718327 9.38824 1.0023C9.38824 1.28631 9.29274 1.52242 9.10175 1.71064C8.91075 1.89887 8.67409 1.99298 8.39175 1.99298H7.39525V4.98246H11.7134C11.9957 4.98246 12.2324 5.07851 12.4234 5.27061C12.6144 5.46274 12.7099 5.70079 12.7099 5.98476C12.7099 6.26876 12.6144 6.50488 12.4234 6.6931C12.2324 6.88133 11.9957 6.97544 11.7134 6.97544H11.3812V17.6047C11.3812 18.1362 11.1819 18.6012 10.7833 18.9998C10.3847 19.3984 9.9197 19.5977 9.38824 19.5977H7.39525V27.2374ZM3.40929 17.6047H9.38824V14.9474H6.73093C6.55377 14.9474 6.39876 14.8809 6.2659 14.7481C6.13303 14.6152 6.0666 14.4602 6.0666 14.2831C6.0666 14.1059 6.13303 13.9509 6.2659 13.818C6.39876 13.6852 6.55377 13.6187 6.73093 13.6187H9.38824V10.9614H6.73093C6.55377 10.9614 6.39876 10.895 6.2659 10.7621C6.13303 10.6292 6.0666 10.4742 6.0666 10.2971C6.0666 10.1199 6.13303 9.96492 6.2659 9.83205C6.39876 9.69919 6.55377 9.63276 6.73093 9.63276H9.38824V6.97544H3.40929V17.6047ZM17.028 26.5731C16.4965 26.5731 16.0315 26.3738 15.6329 25.9752C15.2343 25.5766 15.035 25.1116 15.035 24.5801V15.7446C15.035 15.036 15.1236 14.499 15.3008 14.1336C15.4779 13.7682 15.7104 13.4305 15.9983 13.1205C16.419 12.6776 16.6958 12.3344 16.8287 12.0908C16.9616 11.8472 17.028 11.5815 17.028 11.2936V10.2971H16.6958C16.4135 10.2971 16.1768 10.201 15.9858 10.0089C15.7949 9.81681 15.6994 9.57876 15.6994 9.29478C15.6994 9.01078 15.799 8.77467 15.9983 8.58644C16.1976 8.39821 16.4301 8.3041 16.6958 8.3041H23.3391C23.6215 8.3041 23.8581 8.40015 24.0491 8.59225C24.2401 8.78438 24.3356 9.02243 24.3356 9.3064C24.3356 9.5904 24.2401 9.82652 24.0491 10.0147C23.8581 10.203 23.6215 10.2971 23.3391 10.2971H23.007V11.2936C23.007 11.5593 23.09 11.8361 23.2561 12.124C23.4222 12.4119 23.7156 12.7772 24.1363 13.2201C24.4242 13.5301 24.6401 13.8512 24.784 14.1834C24.928 14.5156 24.9999 15.036 24.9999 15.7446V24.5801C24.9999 25.1116 24.8006 25.5766 24.4021 25.9752C24.0035 26.3738 23.5384 26.5731 23.007 26.5731H17.028ZM17.028 16.6082H23.007V15.7446C23.007 15.346 22.8962 14.9917 22.6748 14.6816C22.4534 14.3716 22.2098 14.0505 21.944 13.7184C21.6119 13.2976 21.3738 12.9101 21.2299 12.5558C21.0859 12.2015 21.014 11.7807 21.014 11.2936V10.2971H19.021V11.2936C19.021 11.7586 18.9546 12.1683 18.8217 12.5226C18.6888 12.8769 18.4563 13.2644 18.1242 13.6852C17.8584 14.0173 17.6093 14.3439 17.3768 14.665C17.1443 14.9861 17.028 15.346 17.028 15.7446V16.6082ZM17.028 20.5942H23.007V17.9369H17.028V20.5942ZM17.028 24.5801H23.007V21.9228H17.028V24.5801Z" fill="#F4F4F4"/>
</svg>
